<?xml version="1.0" encoding="utf-8"?>
<!-- Generator: Adobe Illustrator 17.0.0, SVG Export Plug-In . SVG Version: 6.00 Build 0)  -->
<!DOCTYPE svg PUBLIC "-//W3C//DTD SVG 1.1//EN" "http://www.w3.org/Graphics/SVG/1.1/DTD/svg11.dtd">
<svg version="1.1" id="Layer_1" xmlns="http://www.w3.org/2000/svg" xmlns:xlink="http://www.w3.org/1999/xlink" x="0px" y="0px"
	 width="352.372px" height="101.325px" viewBox="0 0 352.372 101.325" enable-background="new 0 0 352.372 101.325"
	 xml:space="preserve">
<g display="none">
	<polygon display="inline" fill="#B3B3B3" points="59.869,275.956 26.379,275.956 26.379,345.17 116.895,345.17 	"/>
	<polyline display="inline" fill="#F2BE1A" points="26.379,316.438 26.379,248.994 106.881,248.994 	"/>
	<path display="inline" fill="#F2BE1A" d="M147.625,248.994h14.729v29.065h0.292c1.464-2.536,3.023-4.878,4.488-7.217l14.922-21.848
		h18.241l-21.752,27.99l22.921,37.749h-17.361l-16.094-28.383l-5.657,6.922v21.461h-14.729V248.994z"/>
	<polygon display="inline" fill="#F2BE1A" points="264.58,306.734 295.889,261.671 295.889,261.281 267.505,261.281 
		267.505,248.994 315.201,248.994 315.201,257.577 284.575,302.053 284.575,302.442 315.689,302.442 315.689,314.733 
		264.58,314.733 	"/>
	<polygon display="inline" fill="#F2BE1A" points="242.233,248.994 233.022,248.994 223.812,248.994 203.719,314.733 
		217.739,314.733 232.882,260.111 233.022,260.111 233.163,260.111 248.307,314.733 262.327,314.733 	"/>
	<polygon display="inline" fill="#F2BE1A" points="356.455,248.994 347.246,248.994 338.034,248.994 317.94,314.733 331.96,314.733 
		347.106,260.111 347.246,260.111 347.386,260.111 362.528,314.733 376.548,314.733 	"/>
	<rect x="148.288" y="319.883" display="inline" fill="#B3B3B3" width="2.189" height="24.417"/>
	<path display="inline" fill="#B3B3B3" d="M154.342,326.14h1.846v2.533h0.069c1.027-2.017,2.805-2.94,4.652-2.94
		c2.768,0,4.649,1.434,4.649,4.854V344.3h-2.051v-13.13c0-2.497-1.025-3.728-3.111-3.728c-2.395,0-4.001,1.845-4.001,4.649V344.3
		h-2.053V326.14z"/>
	<path display="inline" fill="#B3B3B3" d="M170.106,327.851h-2.496v-1.711h2.496v-5.026h2.053v5.026h3.214v1.711h-3.214v13.031
		c0,1.435,0.616,1.913,1.949,1.913c0.41,0,0.82-0.067,1.265-0.204v1.709c-0.239,0.139-0.753,0.204-1.436,0.204
		c-2.77,0-3.831-0.751-3.831-3.178V327.851z"/>
	<path display="inline" fill="#B3B3B3" d="M188.608,338.283c-0.308,3.866-2.428,6.428-5.848,6.428c-3.831,0-6.087-2.667-6.087-9.507
		c0-6.294,2.256-9.471,6.257-9.471c4.036,0,5.848,2.769,5.848,8.82v0.752h-9.916v0.857c0,5.232,1.847,6.838,3.864,6.838
		c2.154,0,3.488-1.539,3.831-4.717H188.608z M186.589,333.596c-0.067-4.514-1.333-6.154-3.863-6.154
		c-2.531,0-3.797,1.64-3.864,6.154H186.589z"/>
	<path display="inline" fill="#B3B3B3" d="M191.822,326.14h2.053v2.841h0.067c0.786-2.018,2.462-3.248,4.584-3.248
		c0.238,0,0.48,0.032,0.717,0.099v2.054c-0.342-0.067-0.684-0.102-0.992-0.102c-2.256,0-4.376,1.641-4.376,5.164V344.3h-2.053
		V326.14z"/>
	<path display="inline" fill="#B3B3B3" d="M201.159,326.14h1.847v2.533h0.07c1.023-2.017,2.803-2.94,4.65-2.94
		c2.77,0,4.649,1.434,4.649,4.854V344.3h-2.05v-13.13c0-2.497-1.026-3.728-3.113-3.728c-2.392,0-4,1.845-4,4.649V344.3h-2.053
		V326.14z"/>
	<path display="inline" fill="#B3B3B3" d="M215.797,331.546c0-3.727,1.777-5.813,5.607-5.813c3.762,0,5.129,1.947,5.129,4.822
		v10.735c0,1.027,0.344,1.506,1.061,1.506h0.58v1.505c-0.377,0.138-0.683,0.204-0.956,0.204c-1.608,0-2.634-0.375-2.634-2.255
		v-0.616h-0.068c-0.82,2.392-2.668,3.078-4.684,3.078c-3.181,0-4.618-1.983-4.618-5.129c0-2.395,1.095-4.311,3.658-5.029
		l3.866-1.093c1.436-0.411,1.744-0.755,1.744-2.873c0-2.323-1.3-3.146-3.147-3.146c-2.428,0-3.487,1.469-3.487,4.104H215.797z
		 M224.482,334.042h-0.069c-0.203,0.616-1.368,0.991-2.189,1.198l-1.709,0.445c-2.051,0.545-3.112,1.606-3.112,3.76
		c0,2.12,1.095,3.556,2.873,3.556c2.495,0,4.206-1.881,4.206-5.129V334.042z"/>
	<path display="inline" fill="#B3B3B3" d="M241.479,338.283c-0.307,3.866-2.429,6.429-5.781,6.429c-3.829,0-6.085-2.667-6.085-9.507
		c0-6.294,2.256-9.472,6.257-9.472c3.42,0,5.403,2.086,5.609,5.813h-2.053c-0.239-2.839-1.367-4.104-3.556-4.104
		c-2.223,0-4.069,1.369-4.069,7.798c0,6.838,1.949,7.761,3.864,7.761c2.085,0,3.419-1.539,3.761-4.718H241.479z"/>
	<path display="inline" fill="#B3B3B3" d="M244.455,319.883h2.051v3.487h-2.051V319.883z M244.455,326.14h2.051v18.16h-2.051V326.14
		z"/>
	<path display="inline" fill="#B3B3B3" d="M255.739,325.733c4.001,0,6.259,3.178,6.259,9.472c0,6.328-2.258,9.507-6.259,9.507
		c-4,0-6.257-3.179-6.257-9.507C249.482,328.911,251.739,325.733,255.739,325.733 M255.739,343.001c2.29,0,4.072-1.983,4.072-7.796
		c0-5.779-1.782-7.763-4.072-7.763c-2.29,0-4.069,1.984-4.069,7.763C251.67,341.018,253.449,343.001,255.739,343.001"/>
	<path display="inline" fill="#B3B3B3" d="M264.835,326.14h1.845v2.533h0.071c1.027-2.017,2.807-2.94,4.652-2.94
		c2.77,0,4.65,1.434,4.65,4.854V344.3H274v-13.13c0-2.497-1.025-3.728-3.11-3.728c-2.393,0-4.002,1.845-4.002,4.649V344.3h-2.053
		V326.14z"/>
	<path display="inline" fill="#B3B3B3" d="M279.474,331.546c0-3.727,1.777-5.813,5.608-5.813c3.764,0,5.129,1.947,5.129,4.822
		v10.735c0,1.027,0.344,1.506,1.062,1.506h0.581v1.505c-0.377,0.138-0.685,0.204-0.96,0.204c-1.604,0-2.633-0.375-2.633-2.255
		v-0.616h-0.066c-0.823,2.392-2.67,3.078-4.684,3.078c-3.181,0-4.618-1.983-4.618-5.129c0-2.395,1.095-4.311,3.66-5.029l3.863-1.093
		c1.436-0.411,1.744-0.755,1.744-2.873c0-2.323-1.3-3.146-3.144-3.146c-2.429,0-3.49,1.469-3.49,4.104H279.474z M288.16,334.042
		h-0.069c-0.203,0.616-1.368,0.991-2.188,1.198l-1.71,0.445c-2.051,0.545-3.11,1.606-3.11,3.76c0,2.12,1.095,3.556,2.873,3.556
		c2.493,0,4.204-1.881,4.204-5.129V334.042z"/>
	<rect x="294.386" y="319.883" display="inline" fill="#B3B3B3" width="2.05" height="24.417"/>
	<path display="inline" fill="#B3B3B3" d="M308.336,319.883h7.284c4.07,0,6.326,2.325,6.326,6.121c0,2.942-1.16,5.576-4.41,6.194
		v0.065c3.043,0.274,4.07,2.017,4.173,5.777l0.069,2.669c0.031,1.335,0.168,2.635,1.023,3.591h-2.566
		c-0.51-0.855-0.614-2.121-0.646-3.418l-0.071-2.054c-0.135-4.307-0.923-5.674-4.854-5.674h-4.138V344.3h-2.19V319.883z
		 M310.526,331.306h3.76c3.456,0,5.472-1.572,5.472-4.787c0-2.977-1.264-4.788-5.233-4.788h-3.999V331.306z"/>
	<path display="inline" fill="#B3B3B3" d="M336.517,338.283c-0.309,3.866-2.428,6.428-5.847,6.428c-3.83,0-6.089-2.667-6.089-9.507
		c0-6.294,2.259-9.471,6.258-9.471c4.038,0,5.847,2.769,5.847,8.82v0.752h-9.916v0.857c0,5.232,1.848,6.838,3.867,6.838
		c2.151,0,3.487-1.539,3.829-4.717H336.517z M334.498,333.596c-0.066-4.514-1.334-6.154-3.861-6.154
		c-2.533,0-3.797,1.64-3.867,6.154H334.498z"/>
	<path display="inline" fill="#B3B3B3" d="M339.357,331.546c0-3.727,1.777-5.813,5.607-5.813c3.762,0,5.13,1.947,5.13,4.822v10.735
		c0,1.027,0.343,1.506,1.062,1.506h0.58v1.505c-0.378,0.138-0.683,0.204-0.959,0.204c-1.606,0-2.633-0.375-2.633-2.255v-0.616
		h-0.066c-0.823,2.392-2.671,3.078-4.686,3.078c-3.181,0-4.616-1.983-4.616-5.129c0-2.395,1.093-4.311,3.658-5.029l3.864-1.093
		c1.436-0.411,1.744-0.755,1.744-2.873c0-2.323-1.3-3.146-3.146-3.146c-2.427,0-3.488,1.469-3.488,4.104H339.357z M348.042,334.042
		h-0.066c-0.206,0.616-1.371,0.991-2.19,1.198l-1.711,0.445c-2.051,0.545-3.111,1.606-3.111,3.76c0,2.12,1.093,3.556,2.872,3.556
		c2.496,0,4.206-1.881,4.206-5.129V334.042z"/>
	<rect x="354.265" y="319.883" display="inline" fill="#B3B3B3" width="2.053" height="24.417"/>
	<path display="inline" fill="#B3B3B3" d="M361.002,327.851h-2.497v-1.711h2.497v-5.026h2.053v5.026h3.214v1.711h-3.214v13.031
		c0,1.435,0.616,1.913,1.948,1.913c0.409,0,0.821-0.067,1.266-0.204v1.709c-0.241,0.139-0.754,0.204-1.438,0.204
		c-2.769,0-3.829-0.751-3.829-3.178V327.851z"/>
	<path display="inline" fill="#B3B3B3" d="M366.578,326.14h2.19l4.069,15.734h0.067l3.661-15.734h2.186l-5.298,19.629
		c-0.96,3.561-2.054,4.55-4.822,4.55c-0.549,0-0.958-0.034-1.371-0.066v-1.711c0.446,0.034,0.89,0.066,1.334,0.066
		c1.266,0,2.121-0.509,2.704-2.425l0.511-1.711L366.578,326.14z"/>
</g>
<g>
	<polygon fill="#DDDDDD" points="33.49,26.962 0,26.962 0,96.176 90.516,96.176 	"/>
	<polyline fill="#FFFFFF" points="0,67.444 0,0 80.502,0 	"/>
	<path fill="#FFFFFF" d="M121.246,0h14.729v29.065h0.292c1.464-2.536,3.023-4.878,4.488-7.217L155.677,0h18.241l-21.752,27.99
		l22.921,37.749h-17.361l-16.094-28.383l-5.657,6.922v21.461h-14.729V0z"/>
	<polygon fill="#FFFFFF" points="238.201,57.74 269.51,12.677 269.51,12.287 241.126,12.287 241.126,0 288.822,0 288.822,8.583 
		258.196,53.059 258.196,53.448 289.31,53.448 289.31,65.739 238.201,65.739 	"/>
	<polygon fill="#FFFFFF" points="215.854,0 206.643,0 197.433,0 177.34,65.739 191.36,65.739 206.503,11.117 206.643,11.117 
		206.784,11.117 221.928,65.739 235.948,65.739 	"/>
	<polygon fill="#FFFFFF" points="330.076,0 320.867,0 311.655,0 291.561,65.739 305.581,65.739 320.727,11.117 320.867,11.117 
		321.007,11.117 336.149,65.739 350.169,65.739 	"/>
	<rect x="121.909" y="70.889" fill="#DDDDDD" width="2.189" height="24.417"/>
	<path fill="#DDDDDD" d="M127.963,77.146h1.846v2.533h0.069c1.027-2.017,2.805-2.94,4.652-2.94c2.768,0,4.649,1.434,4.649,4.854
		v13.713h-2.051v-13.13c0-2.497-1.025-3.728-3.111-3.728c-2.395,0-4.001,1.845-4.001,4.649v12.209h-2.053V77.146z"/>
	<path fill="#DDDDDD" d="M143.727,78.857h-2.496v-1.711h2.496V72.12h2.053v5.026h3.214v1.711h-3.214v13.031
		c0,1.435,0.616,1.913,1.949,1.913c0.41,0,0.82-0.067,1.265-0.204v1.709c-0.239,0.139-0.753,0.204-1.436,0.204
		c-2.77,0-3.831-0.751-3.831-3.178V78.857z"/>
	<path fill="#DDDDDD" d="M162.229,89.289c-0.308,3.866-2.428,6.428-5.848,6.428c-3.831,0-6.087-2.667-6.087-9.507
		c0-6.294,2.256-9.471,6.257-9.471c4.036,0,5.848,2.769,5.848,8.82v0.752h-9.916v0.857c0,5.232,1.847,6.838,3.864,6.838
		c2.154,0,3.488-1.539,3.831-4.717H162.229z M160.21,84.602c-0.067-4.514-1.333-6.154-3.863-6.154c-2.531,0-3.797,1.64-3.864,6.154
		H160.21z"/>
	<path fill="#DDDDDD" d="M165.443,77.146h2.053v2.841h0.067c0.786-2.018,2.462-3.248,4.584-3.248c0.238,0,0.48,0.032,0.717,0.099
		v2.054c-0.342-0.067-0.684-0.102-0.992-0.102c-2.256,0-4.376,1.641-4.376,5.164v11.352h-2.053V77.146z"/>
	<path fill="#DDDDDD" d="M174.78,77.146h1.847v2.533h0.07c1.023-2.017,2.803-2.94,4.65-2.94c2.77,0,4.649,1.434,4.649,4.854v13.713
		h-2.05v-13.13c0-2.497-1.026-3.728-3.113-3.728c-2.392,0-4,1.845-4,4.649v12.209h-2.053V77.146z"/>
	<path fill="#DDDDDD" d="M189.418,82.552c0-3.727,1.777-5.813,5.607-5.813c3.762,0,5.129,1.947,5.129,4.822v10.735
		c0,1.027,0.344,1.506,1.061,1.506h0.58v1.505c-0.377,0.138-0.683,0.204-0.956,0.204c-1.608,0-2.634-0.375-2.634-2.255V92.64h-0.068
		c-0.82,2.392-2.668,3.078-4.684,3.078c-3.181,0-4.618-1.983-4.618-5.129c0-2.395,1.095-4.311,3.658-5.029l3.866-1.093
		c1.436-0.411,1.744-0.755,1.744-2.873c0-2.323-1.3-3.146-3.147-3.146c-2.428,0-3.487,1.469-3.487,4.104H189.418z M198.103,85.048
		h-0.069c-0.203,0.616-1.368,0.991-2.189,1.198l-1.709,0.445c-2.051,0.545-3.112,1.606-3.112,3.76c0,2.12,1.095,3.556,2.873,3.556
		c2.495,0,4.206-1.881,4.206-5.129V85.048z"/>
	<path fill="#DDDDDD" d="M215.1,89.289c-0.307,3.866-2.429,6.429-5.781,6.429c-3.829,0-6.085-2.667-6.085-9.507
		c0-6.294,2.256-9.472,6.257-9.472c3.42,0,5.403,2.086,5.609,5.813h-2.053c-0.239-2.839-1.367-4.104-3.556-4.104
		c-2.223,0-4.069,1.369-4.069,7.798c0,6.838,1.949,7.761,3.864,7.761c2.085,0,3.419-1.539,3.761-4.718H215.1z"/>
	<path fill="#DDDDDD" d="M218.076,70.889h2.051v3.487h-2.051V70.889z M218.076,77.146h2.051v18.16h-2.051V77.146z"/>
	<path fill="#DDDDDD" d="M229.36,76.739c4.001,0,6.259,3.178,6.259,9.472c0,6.328-2.258,9.507-6.259,9.507
		c-4,0-6.257-3.179-6.257-9.507C223.103,79.917,225.36,76.739,229.36,76.739 M229.36,94.007c2.29,0,4.072-1.983,4.072-7.796
		c0-5.779-1.782-7.763-4.072-7.763c-2.29,0-4.069,1.984-4.069,7.763C225.291,92.024,227.07,94.007,229.36,94.007"/>
	<path fill="#DDDDDD" d="M238.457,77.146h1.845v2.533h0.071c1.027-2.017,2.807-2.94,4.652-2.94c2.77,0,4.65,1.434,4.65,4.854v13.713
		h-2.053v-13.13c0-2.497-1.025-3.728-3.11-3.728c-2.393,0-4.002,1.845-4.002,4.649v12.209h-2.053V77.146z"/>
	<path fill="#DDDDDD" d="M253.095,82.552c0-3.727,1.777-5.813,5.608-5.813c3.764,0,5.129,1.947,5.129,4.822v10.735
		c0,1.027,0.344,1.506,1.062,1.506h0.581v1.505c-0.377,0.138-0.685,0.204-0.96,0.204c-1.604,0-2.633-0.375-2.633-2.255V92.64h-0.066
		c-0.823,2.392-2.67,3.078-4.684,3.078c-3.181,0-4.618-1.983-4.618-5.129c0-2.395,1.095-4.311,3.66-5.029l3.863-1.093
		c1.436-0.411,1.744-0.755,1.744-2.873c0-2.323-1.3-3.146-3.144-3.146c-2.429,0-3.49,1.469-3.49,4.104H253.095z M261.781,85.048
		h-0.069c-0.203,0.616-1.368,0.991-2.188,1.198l-1.71,0.445c-2.051,0.545-3.11,1.606-3.11,3.76c0,2.12,1.095,3.556,2.873,3.556
		c2.493,0,4.204-1.881,4.204-5.129V85.048z"/>
	<rect x="268.007" y="70.889" fill="#DDDDDD" width="2.05" height="24.417"/>
	<path fill="#DDDDDD" d="M281.957,70.889h7.284c4.07,0,6.326,2.325,6.326,6.121c0,2.942-1.16,5.576-4.41,6.194v0.065
		c3.043,0.274,4.07,2.017,4.173,5.777l0.069,2.669c0.031,1.335,0.168,2.635,1.023,3.591h-2.566c-0.51-0.855-0.614-2.121-0.646-3.418
		l-0.071-2.054c-0.135-4.307-0.923-5.674-4.854-5.674h-4.138v11.146h-2.19V70.889z M284.147,82.312h3.76
		c3.456,0,5.472-1.572,5.472-4.787c0-2.977-1.264-4.788-5.233-4.788h-3.999V82.312z"/>
	<path fill="#DDDDDD" d="M310.138,89.289c-0.309,3.866-2.428,6.428-5.847,6.428c-3.83,0-6.089-2.667-6.089-9.507
		c0-6.294,2.259-9.471,6.258-9.471c4.038,0,5.847,2.769,5.847,8.82v0.752h-9.916v0.857c0,5.232,1.848,6.838,3.867,6.838
		c2.151,0,3.487-1.539,3.829-4.717H310.138z M308.119,84.602c-0.066-4.514-1.334-6.154-3.861-6.154c-2.533,0-3.797,1.64-3.867,6.154
		H308.119z"/>
	<path fill="#DDDDDD" d="M312.978,82.552c0-3.727,1.777-5.813,5.607-5.813c3.762,0,5.13,1.947,5.13,4.822v10.735
		c0,1.027,0.343,1.506,1.062,1.506h0.58v1.505c-0.378,0.138-0.683,0.204-0.959,0.204c-1.606,0-2.633-0.375-2.633-2.255V92.64h-0.066
		c-0.823,2.392-2.671,3.078-4.686,3.078c-3.181,0-4.616-1.983-4.616-5.129c0-2.395,1.093-4.311,3.658-5.029l3.864-1.093
		c1.436-0.411,1.744-0.755,1.744-2.873c0-2.323-1.3-3.146-3.146-3.146c-2.427,0-3.488,1.469-3.488,4.104H312.978z M321.663,85.048
		h-0.066c-0.206,0.616-1.371,0.991-2.19,1.198l-1.711,0.445c-2.051,0.545-3.111,1.606-3.111,3.76c0,2.12,1.093,3.556,2.872,3.556
		c2.496,0,4.206-1.881,4.206-5.129V85.048z"/>
	<rect x="327.886" y="70.889" fill="#DDDDDD" width="2.053" height="24.417"/>
	<path fill="#DDDDDD" d="M334.624,78.857h-2.497v-1.711h2.497V72.12h2.053v5.026h3.214v1.711h-3.214v13.031
		c0,1.435,0.616,1.913,1.948,1.913c0.409,0,0.821-0.067,1.266-0.204v1.709c-0.241,0.139-0.754,0.204-1.438,0.204
		c-2.769,0-3.829-0.751-3.829-3.178V78.857z"/>
	<path fill="#DDDDDD" d="M340.199,77.146h2.19l4.069,15.734h0.067l3.661-15.734h2.186l-5.298,19.629
		c-0.96,3.561-2.054,4.55-4.822,4.55c-0.549,0-0.958-0.034-1.371-0.066v-1.711c0.446,0.034,0.89,0.066,1.334,0.066
		c1.266,0,2.121-0.509,2.704-2.425l0.511-1.711L340.199,77.146z"/>
</g>
</svg>
